<svg width="24" height="25" viewBox="0 0 24 25" fill="none" xmlns="http://www.w3.org/2000/svg">
  <g clip-path="url(#clip0_1552_21597)">
    <path d="M12.8933 16.1463L7.79327 17.0643L8.64327 11.8963L18.3843 2.18932C18.5423 2.02998 18.7303 1.90351 18.9375 1.8172C19.1447 1.7309 19.3669 1.68646 19.5913 1.68646C19.8157 1.68646 20.0379 1.7309 20.2451 1.8172C20.4522 1.90351 20.6402 2.02998 20.7983 2.18932L22.6003 3.99132C22.7596 4.14936 22.8861 4.33738 22.9724 4.54454C23.0587 4.7517 23.1031 4.9739 23.1031 5.19832C23.1031 5.42274 23.0587 5.64494 22.9724 5.8521C22.8861 6.05926 22.7596 6.24728 22.6003 6.40532L12.8933 16.1463Z" stroke="#FFFFFF" stroke-width="2" stroke-linecap="round" stroke-linejoin="round"/>
    <path d="M20.5433 16.9963V22.0963C20.5433 22.5472 20.3642 22.9796 20.0454 23.2984C19.7265 23.6172 19.2941 23.7963 18.8433 23.7963H2.69327C2.2424 23.7963 1.81 23.6172 1.49119 23.2984C1.17238 22.9796 0.993271 22.5472 0.993271 22.0963V5.94634C0.993271 5.49547 1.17238 5.06307 1.49119 4.74426C1.81 4.42544 2.2424 4.24634 2.69327 4.24634H7.79327" stroke="#FFFFFF" stroke-width="2" stroke-linecap="round" stroke-linejoin="round"/>
  </g>
  <defs>
    <clipPath id="clip0_1552_21597">
      <rect width="23.8" height="23.8" fill="white" transform="translate(0.143265 0.846313)"/>
    </clipPath>
  </defs>
</svg>
